<svg width="19" height="19" viewBox="0 0 19 19" fill="none" xmlns="http://www.w3.org/2000/svg">
<path d="M9.5 0C9.96543 0 10.3503 0.346184 10.4111 0.794922L10.4189 0.918945V8.58105H18.0811C18.5886 8.58128 19 8.99239 19 9.5C19 9.96543 18.6538 10.3503 18.2051 10.4111L18.0811 10.4189H10.4189V18.0811C10.4187 18.5886 10.0076 19 9.5 19C9.03457 19 8.64974 18.6538 8.58887 18.2051L8.58105 18.0811V10.4189H0.918945C0.411388 10.4187 0 10.0076 0 9.5C2.06698e-07 9.03457 0.346184 8.64974 0.794922 8.58887L0.918945 8.58105H8.58105V0.918945C8.58128 0.411388 8.99239 2.2543e-07 9.5 0Z" fill="#212121"/>
</svg>
